<?xml version="1.0" encoding="utf-8"?>
<!-- Generator: Adobe Illustrator 16.0.0, SVG Export Plug-In . SVG Version: 6.00 Build 0)  -->
<!DOCTYPE svg PUBLIC "-//W3C//DTD SVG 1.1//EN" "http://www.w3.org/Graphics/SVG/1.1/DTD/svg11.dtd">
<svg version="1.1" id="图形" xmlns="http://www.w3.org/2000/svg" xmlns:xlink="http://www.w3.org/1999/xlink" x="0px" y="0px"
	 width="1024px" height="1024px" viewBox="0 0 1024 1024" enable-background="new 0 0 1024 1024" xml:space="preserve">
<g>
	<path fill="#272636" d="M385.591,480.241H193.543c-52.943,0-96.026-43.083-96.026-96.027V192.168
		c0-52.944,43.083-96.026,96.026-96.026h192.047c52.943,0,96.026,43.082,96.026,96.026v192.046
		C481.616,437.193,438.534,480.241,385.591,480.241L385.591,480.241z M193.543,160.157c-17.637,0-32.01,14.373-32.01,32.011v192.046
		c0,17.637,14.374,32.011,32.01,32.011h192.047c17.636,0,32.01-14.374,32.01-32.011V192.168c0-17.638-14.374-32.011-32.01-32.011
		H193.543L193.543,160.157z M385.591,928.361H193.543c-52.943,0-96.026-43.088-96.026-96.026V640.282
		c0-52.939,43.083-96.026,96.026-96.026h192.047c52.943,0,96.026,43.087,96.026,96.026v192.053
		C481.616,885.308,438.534,928.361,385.591,928.361L385.591,928.361z M193.543,608.277c-17.637,0-32.01,14.339-32.01,32.005v192.053
		c0,17.666,14.374,32.004,32.01,32.004h192.047c17.636,0,32.01-14.338,32.01-32.004V640.282c0-17.666-14.374-32.005-32.01-32.005
		H193.543L193.543,608.277z M830.574,480.241H638.523c-52.943,0-96.026-43.083-96.026-96.027V192.168
		c0-52.944,43.083-96.026,96.026-96.026h192.052c52.938,0,96.021,43.082,96.021,96.026v192.046
		C926.596,437.193,883.513,480.241,830.574,480.241L830.574,480.241z M638.523,160.157c-17.671,0-32.011,14.373-32.011,32.011
		v192.046c0,17.637,14.34,32.011,32.011,32.011h192.052c17.666,0,32.006-14.374,32.006-32.011V192.168
		c0-17.638-14.34-32.011-32.006-32.011H638.523L638.523,160.157z M830.574,928.361H638.523c-52.943,0-96.026-43.088-96.026-96.026
		V640.282c0-52.939,43.083-96.026,96.026-96.026h192.052c52.938,0,96.021,43.087,96.021,96.026v192.053
		C926.596,885.308,883.513,928.361,830.574,928.361L830.574,928.361z M638.523,608.277c-17.671,0-32.011,14.339-32.011,32.005
		v192.053c0,17.666,14.34,32.004,32.011,32.004h192.052c17.666,0,32.006-14.338,32.006-32.004V640.282
		c0-17.666-14.34-32.005-32.006-32.005H638.523L638.523,608.277z M638.523,608.277"/>
</g>
</svg>
