<?xml version="1.0" encoding="utf-8"?>
<!-- Generator: Adobe Illustrator 16.0.0, SVG Export Plug-In . SVG Version: 6.00 Build 0)  -->
<!DOCTYPE svg PUBLIC "-//W3C//DTD SVG 1.1//EN" "http://www.w3.org/Graphics/SVG/1.1/DTD/svg11.dtd">
<svg version="1.1" id="图形" xmlns="http://www.w3.org/2000/svg" xmlns:xlink="http://www.w3.org/1999/xlink" x="0px" y="0px"
	 width="1024px" height="1024px" viewBox="0 0 1024 1024" enable-background="new 0 0 1024 1024" xml:space="preserve">
<path fill-rule="evenodd" clip-rule="evenodd" d="M930.483,128.498h-40.784c-13.894,0-28.108,12.74-30.029,28.32l-30.894,178.56
	l-54.298,382.081c-5.638,46.562-46.198,83.043-92.334,83.043H162.125c-17.704,0-32.018-14.308-32.018-32.002
	s14.313-31.996,32.018-31.996h520.018c13.577,0,27.02-12.515,28.814-27.363l54.521-383.713l30.831-177.885
	c5.667-46.562,46.678-83.042,93.388-83.042h40.785c17.675,0,32.018,14.337,32.018,32.002
	C962.5,114.162,948.157,128.498,930.483,128.498z M706.38,224.498H152.07c-6.047,0-11.235,2.368-15.367,7.04
	c-6.434,7.295-9.409,19.073-8.13,29.824l50.425,288.385c1.76,14.239,15.207,26.753,31.148,26.847l69.518,5.123l-40.588-289.383
	c-2.109-15.041,8.373-28.944,23.414-31.053l0.991-0.139c15.041-2.11,28.943,8.373,31.053,23.414l41.392,295.112
	c0.295,2.102,0.32,4.177,0.144,6.205l67.432,4.969V297c0-15.188,12.312-27.5,27.5-27.5h1c15.188,0,27.5,12.312,27.5,27.5v297.967
	l54.043,3.982c-0.37-2.435-0.443-4.951-0.126-7.515l36.59-295.745c1.864-15.073,15.595-25.78,30.668-23.916l0.992,0.123
	c15.073,1.865,25.78,15.595,23.916,30.668l-36.59,295.745c-0.198,1.607-0.559,3.151-1.015,4.649l76.486,5.636
	c17.607,1.28,30.86,16.606,29.551,34.238c-1.221,16.864-15.276,29.663-31.891,29.663c-0.768,0-1.568-0.029-2.37-0.093L207.809,640.5
	c-46.135,0-86.667-36.48-92.108-81.343L65.247,270.738c-3.747-30.815,4.832-60.541,23.532-81.63
	c16.36-18.467,38.831-28.609,63.291-28.609h554.31c17.673,0,32.017,14.336,32.017,31.997
	C738.397,210.161,724.053,224.498,706.38,224.498z M225.641,832.496c35.378,0,64.034,28.645,64.034,64.004
	c0,35.357-28.655,64-64.034,64c-35.374,0-64.03-28.642-64.03-64C161.611,861.141,190.268,832.496,225.641,832.496z M673.854,832.496
	c35.372,0,64.029,28.645,64.029,64.004c0,35.357-28.656,64-64.029,64c-35.378,0-64.029-28.642-64.029-64
	C609.825,861.141,638.476,832.496,673.854,832.496z"/>
</svg>
