<?xml version="1.0" encoding="utf-8"?>
<!-- Generator: Adobe Illustrator 16.0.0, SVG Export Plug-In . SVG Version: 6.00 Build 0)  -->
<!DOCTYPE svg PUBLIC "-//W3C//DTD SVG 1.1//EN" "http://www.w3.org/Graphics/SVG/1.1/DTD/svg11.dtd">
<svg version="1.1" id="图形" xmlns="http://www.w3.org/2000/svg" xmlns:xlink="http://www.w3.org/1999/xlink" x="0px" y="0px"
	 width="1024px" height="1024px" viewBox="0 0 1024 1024" enable-background="new 0 0 1024 1024" xml:space="preserve">
<g>
	<path fill="#272636" d="M767.194,959.616H191.042c-52.943,0-96.026-43.082-96.026-96.026V223.423
		c0-52.939,43.083-96.022,96.026-96.022h448.115c17.699,0,32.01,14.34,32.01,32.006c0,17.669-14.311,32.01-32.01,32.01H191.042
		c-17.637,0-32.01,14.368-32.01,32.006V863.59c0,17.671,14.374,32.01,32.01,32.01h576.151c17.666,0,32.006-14.339,32.006-32.01
		V351.459c0-17.671,14.31-32.01,32.01-32.01s32.006,14.338,32.006,32.01V863.59C863.215,916.534,820.132,959.616,767.194,959.616
		L767.194,959.616z M579.142,447.485c-8.195,0-16.387-3.14-22.628-9.382c-12.519-12.513-12.519-32.742,0-45.255l318.096-318.1
		c12.518-12.519,32.747-12.519,45.261,0c12.518,12.512,12.518,32.742,0,45.26L601.775,438.103
		C595.532,444.379,587.337,447.485,579.142,447.485L579.142,447.485z M447.11,447.485H255.058c-17.67,0-32.011-14.339-32.011-32.011
		c0-17.669,14.34-32.009,32.011-32.009H447.11c17.666,0,32.005,14.34,32.005,32.009C479.115,433.146,464.776,447.485,447.11,447.485
		L447.11,447.485z M639.157,639.533h-384.1c-17.67,0-32.011-14.307-32.011-32.007c0-17.704,14.34-32.011,32.011-32.011h384.1
		c17.699,0,32.01,14.307,32.01,32.011C671.167,625.227,656.857,639.533,639.157,639.533L639.157,639.533z M639.157,639.533"/>
</g>
</svg>
