<?xml version="1.0" encoding="utf-8"?>
<!-- Generator: Adobe Illustrator 16.0.0, SVG Export Plug-In . SVG Version: 6.00 Build 0)  -->
<!DOCTYPE svg PUBLIC "-//W3C//DTD SVG 1.1//EN" "http://www.w3.org/Graphics/SVG/1.1/DTD/svg11.dtd">
<svg version="1.1" id="图形" xmlns="http://www.w3.org/2000/svg" xmlns:xlink="http://www.w3.org/1999/xlink" x="0px" y="0px"
	 width="1024px" height="1024px" viewBox="0 0 1024 1024" enable-background="new 0 0 1024 1024" xml:space="preserve">
<g>
	<path fill="#272636" d="M980.589,421.021l-405.677-320.63c-34.922-27.653-89.716-27.619-124.608,0L44.662,421.021
		c-13.856,10.981-16.226,31.112-5.28,44.969c10.945,13.861,30.633,16.23,44.494,5.284l12.64-10.374v387.689
		c0,54.956,57.906,96.021,108.827,96.021H845.51c50.32,0,83.225-38.599,83.225-96.021V462.404l11.683,8.869
		c5.891,4.641,13.124,6.882,20.069,6.882c9.44,0,18.916-4.161,25.221-12.167C996.687,452.133,994.48,432.001,980.589,421.021
		L980.589,421.021z M480.615,880.594V703.141c0-8.835,16.005-13.25,32.01-13.25s32.011,4.415,32.011,13.25v177.453H480.615
		L480.615,880.594z M864.719,848.589c0,21.222-5.86,32.005-19.209,32.005H609.291c0-0.479-0.64-0.863-0.64-1.343v-176.11
		c0-37.226-30.022-77.301-96.026-77.301c-65.999,0-96.026,40.075-96.026,77.301v176.11c0,0.479,0.865,0.864,0.865,1.343H205.343
		c-20.068,0-44.812-17.348-44.812-32.005V410.296l329.017-259.682c11.81-9.348,33.129-9.348,44.973,0l330.198,261.186V848.589
		L864.719,848.589z M864.719,848.589"/>
</g>
</svg>
