<?xml version="1.0" encoding="utf-8"?>
<!-- Generator: Adobe Illustrator 16.0.0, SVG Export Plug-In . SVG Version: 6.00 Build 0)  -->
<!DOCTYPE svg PUBLIC "-//W3C//DTD SVG 1.1//EN" "http://www.w3.org/Graphics/SVG/1.1/DTD/svg11.dtd">
<svg version="1.1" id="图形" xmlns="http://www.w3.org/2000/svg" xmlns:xlink="http://www.w3.org/1999/xlink" x="0px" y="0px"
	 width="1024px" height="1024px" viewBox="0 0 1024 1024" enable-background="new 0 0 1024 1024" xml:space="preserve">
<g>
	<path fill="#272636" d="M512.498,64.009c-247.101,0-448.115,201.014-448.115,448.114c0,247.105,201.014,448.12,448.115,448.12
		c247.105,0,448.12-201.015,448.12-448.12C960.618,265.023,759.604,64.009,512.498,64.009L512.498,64.009z M289.657,824.368
		c3.17-0.128,6.34-0.225,9.475-1.343c62.8-22.247,124.833-38.253,158.059-40.812c16.674-1.28,29.543-15.204,29.543-31.913v-59.088
		c0-9.412-4.132-18.339-11.302-24.425c-53.1-45.101-72.016-144.804-72.016-223.129c0-90.038,42.154-135.68,125.311-135.68
		c79.221,0,117.727,44.361,117.727,135.68c0,88.953-39.308,189.907-89.462,229.855c-7.619,6.047-12.068,15.268-12.068,25.03v55.02
		c0,16.229,12.132,29.831,28.229,31.786c37.197,4.448,101.115,25.958,148.521,44.649c1.567,0.611,3.204,0.546,4.835,0.899
		c-61.202,41.227-134.854,65.329-214.011,65.329C429.376,896.228,352.554,869.403,289.657,824.368L289.657,824.368z
		 M765.177,800.715c0.22-12.968-7.302-25.256-20.074-30.315c-20.801-8.191-84.182-32.329-136.163-43.689v-13.606
		c66.707-62.828,101.53-180.525,101.53-269.445c0-126.913-66.224-199.701-181.742-199.701
		c-118.556,0-189.326,74.643-189.326,199.701c0,42.956,6.237,183.983,83.317,261.479v17.152
		C378,730.198,321.252,747.321,277.75,762.721c-15.009,5.309-22.979,20.709-20.162,35.941
		c-79.03-70.418-129.189-172.589-129.189-286.539c0-211.798,172.301-384.099,384.099-384.099
		c211.804,0,384.104,172.301,384.104,384.099C896.603,627.163,845.515,730.261,765.177,800.715L765.177,800.715z M765.177,800.715"
		/>
</g>
</svg>
