<?xml version="1.0" encoding="utf-8"?>
<!-- Generator: Adobe Illustrator 16.0.0, SVG Export Plug-In . SVG Version: 6.00 Build 0)  -->
<!DOCTYPE svg PUBLIC "-//W3C//DTD SVG 1.1//EN" "http://www.w3.org/Graphics/SVG/1.1/DTD/svg11.dtd">
<svg version="1.1" id="图形" xmlns="http://www.w3.org/2000/svg" xmlns:xlink="http://www.w3.org/1999/xlink" x="0px" y="0px"
	 width="1024px" height="1024px" viewBox="0 0 1024 1024" enable-background="new 0 0 1024 1024" xml:space="preserve">
<g>
	<path fill="#272636" d="M512.391,66.101c-245.982,0-446.132,200.151-446.132,446.133c0,246.017,200.116,446.131,446.132,446.131
		c246.017,0,446.132-200.114,446.132-446.131C958.523,266.252,758.407,66.101,512.391,66.101L512.391,66.101z M727.682,438.645
		L471.389,697.721c-0.063,0.063-0.19,0.099-0.259,0.196c-0.093,0.063-0.093,0.19-0.19,0.254c-2.046,1.982-4.576,3.198-6.945,4.548
		c-1.182,0.668-2.144,1.694-3.395,2.173c-3.839,1.537-7.902,2.339-11.971,2.339c-4.098,0-8.225-0.802-12.098-2.402
		c-1.28-0.543-2.306-1.632-3.521-2.307c-2.369-1.342-4.831-2.529-6.882-4.542c-0.063-0.063-0.098-0.195-0.161-0.259
		c-0.063-0.093-0.19-0.093-0.254-0.19L299.665,567.99c-12.323-12.674-12.035-32.934,0.641-45.257
		c12.673-12.293,32.903-12.067,45.26,0.641l103.289,106.137l233.342-235.902c12.421-12.577,32.714-12.704,45.261-0.254
		C739.97,405.805,740.097,426.069,727.682,438.645L727.682,438.645z M727.682,438.645"/>
</g>
</svg>
