<?xml version="1.0" encoding="utf-8"?>
<!-- Generator: Adobe Illustrator 16.0.0, SVG Export Plug-In . SVG Version: 6.00 Build 0)  -->
<!DOCTYPE svg PUBLIC "-//W3C//DTD SVG 1.1//EN" "http://www.w3.org/Graphics/SVG/1.1/DTD/svg11.dtd">
<svg version="1.1" id="图形" xmlns="http://www.w3.org/2000/svg" xmlns:xlink="http://www.w3.org/1999/xlink" x="0px" y="0px"
	 width="1024px" height="1024px" viewBox="0 0 1024 1024" enable-background="new 0 0 1024 1024" xml:space="preserve">
<path fill-rule="evenodd" clip-rule="evenodd" fill="#231815" d="M753.046,902.864h-58.483c-82.6,0-149.8-67.094-149.8-149.564
	V580.282c0-15.945,11.388-29.222,26.487-32.169c4.028-1.76,8.48-2.735,13.17-2.735h168.626c82.618,0,149.818,67.096,149.818,149.542
	v58.38C902.865,835.771,835.664,902.864,753.046,902.864z M837.171,694.92c0-46.291-37.727-83.973-84.125-83.973H610.438V753.3
	c0,46.314,37.746,83.996,84.125,83.996h58.483c46.398,0,84.125-37.682,84.125-83.996V694.92z M753.046,478.623H584.42
	c-4.689,0-9.121-0.976-13.149-2.737c-15.12-2.946-26.528-16.221-26.528-32.169V270.679c0-82.447,67.221-149.543,149.82-149.543
	h58.483c82.618,0,149.818,67.096,149.818,149.543v58.4C902.865,411.549,835.664,478.623,753.046,478.623z M837.171,270.679
	c0-46.314-37.727-83.977-84.125-83.977h-58.483c-46.379,0-84.125,37.662-84.125,83.977v142.376h142.608
	c46.398,0,84.125-37.662,84.125-83.976V270.679z M329.419,902.864h-58.486c-82.574,0-149.797-67.094-149.797-149.564v-58.38
	c0-82.446,67.223-149.542,149.797-149.542h168.648c4.688,0,9.12,0.976,13.15,2.715c15.118,2.968,26.527,16.244,26.527,32.189V753.3
	C479.259,835.771,412.036,902.864,329.419,902.864z M413.563,610.947h-142.63c-46.356,0-84.103,37.682-84.103,83.973v58.38
	c0,46.314,37.746,83.996,84.103,83.996h58.486c46.397,0,84.144-37.682,84.144-83.996V610.947z M452.751,475.886
	c-4.028,1.762-8.481,2.737-13.17,2.737H270.933c-82.574,0-149.797-67.074-149.797-149.544v-58.4
	c0-82.447,67.223-149.543,149.797-149.543h58.486c82.617,0,149.84,67.096,149.84,149.543v173.038
	C479.259,459.665,467.85,472.939,452.751,475.886z M413.563,270.679c0-46.314-37.746-83.977-84.144-83.977h-58.486
	c-46.356,0-84.103,37.662-84.103,83.977v58.4c0,46.313,37.746,83.976,84.103,83.976h142.63V270.679z"/>
</svg>
