<?xml version="1.0" encoding="utf-8"?>
<!-- Generator: Adobe Illustrator 16.0.0, SVG Export Plug-In . SVG Version: 6.00 Build 0)  -->
<!DOCTYPE svg PUBLIC "-//W3C//DTD SVG 1.1//EN" "http://www.w3.org/Graphics/SVG/1.1/DTD/svg11.dtd">
<svg version="1.1" id="图形" xmlns="http://www.w3.org/2000/svg" xmlns:xlink="http://www.w3.org/1999/xlink" x="0px" y="0px"
	 width="1024px" height="1024px" viewBox="0 0 1024 1024" enable-background="new 0 0 1024 1024" xml:space="preserve">
<path fill-rule="evenodd" clip-rule="evenodd" fill="#231815" d="M942.802,146.742c-1.146-0.041-28.162-0.636-47.692,18.217
	c-16.096,15.565-24.239,41.266-24.239,76.341c0,106.878,0.128,390.821,0.128,390.842c0,96.146-77.486,174.355-172.741,174.355
	H225.623c-95.257,0-172.743-78.209-172.743-174.331V396.802c0-96.124,77.486-174.332,172.743-174.332h430.9
	c18.533,0,33.589,15.184,33.589,33.907c0,18.726-15.056,33.909-33.589,33.909h-430.9c-58.211,0-105.563,47.775-105.563,106.516
	v235.364c0,58.74,47.353,106.536,105.563,106.536h472.634c58.229,0,105.562-47.796,105.562-106.536c0,0-0.128-283.988-0.128-390.866
	c0-54.966,15.482-97.461,46.016-126.302c40.761-38.51,91.568-36.305,97.208-35.923c18.514,1.231,32.53,17.389,31.3,36.05
	C977.008,133.723,960.996,147.719,942.802,146.742z M657.075,461.841H267.652c-18.555,0-33.59-15.163-33.59-33.888
	c0-18.723,15.035-33.887,33.59-33.887h389.424c18.575,0,33.591,15.164,33.591,33.887
	C690.666,446.678,675.651,461.841,657.075,461.841z M657.075,633.544H267.652c-18.555,0-33.59-15.163-33.59-33.91
	c0-18.702,15.035-33.887,33.59-33.887h389.424c18.575,0,33.591,15.185,33.591,33.887
	C690.666,618.381,675.651,633.544,657.075,633.544z M99.457,836.587c29.679,0,53.727,24.304,53.727,54.245
	c0,29.963-24.048,54.244-53.727,54.244c-29.688,0-53.746-24.281-53.746-54.244C45.711,860.891,69.77,836.587,99.457,836.587z
	 M836.434,836.587c29.666,0,53.733,24.304,53.733,54.245c0,29.963-24.067,54.244-53.733,54.244
	c-29.689,0-53.736-24.281-53.736-54.244C782.698,860.891,806.744,836.587,836.434,836.587z"/>
</svg>
