<?xml version="1.0" encoding="utf-8"?>
<!-- Generator: Adobe Illustrator 16.0.0, SVG Export Plug-In . SVG Version: 6.00 Build 0)  -->
<!DOCTYPE svg PUBLIC "-//W3C//DTD SVG 1.1//EN" "http://www.w3.org/Graphics/SVG/1.1/DTD/svg11.dtd">
<svg version="1.1" id="图形" xmlns="http://www.w3.org/2000/svg" xmlns:xlink="http://www.w3.org/1999/xlink" x="0px" y="0px"
	 width="1024px" height="1024px" viewBox="0 0 1024 1024" enable-background="new 0 0 1024 1024" xml:space="preserve">
<g>
	<path fill="#272636" d="M289.266,433.023c-97.081,0-176.046-78.966-176.046-176.047c0-97.081,78.965-176.046,176.046-176.046
		s176.047,78.966,176.047,176.046C465.313,354.057,386.347,433.023,289.266,433.023L289.266,433.023z M289.266,144.945
		c-61.774,0-112.026,50.252-112.026,112.031c0,61.774,50.252,112.026,112.026,112.026c61.779,0,112.031-50.252,112.031-112.026
		C401.298,195.197,351.045,144.945,289.266,144.945L289.266,144.945z M701.889,433.023c-97.052,0-176.047-78.966-176.047-176.047
		c0-97.081,78.995-176.046,176.047-176.046c97.046,0,176.041,78.966,176.041,176.046
		C877.93,354.057,798.935,433.023,701.889,433.023L701.889,433.023z M701.889,144.945c-61.779,0-112.031,50.252-112.031,112.031
		c0,61.774,50.252,112.026,112.031,112.026c61.773,0,112.025-50.252,112.025-112.026
		C813.914,195.197,763.633,144.945,701.889,144.945L701.889,144.945z M286.067,883.443c-97.081,0-176.047-78.994-176.047-176.047
		c0-97.047,78.966-176.047,176.047-176.047s176.047,79,176.047,176.047C462.114,804.449,383.148,883.443,286.067,883.443
		L286.067,883.443z M286.067,595.365c-61.778,0-112.031,50.257-112.031,112.031c0,61.779,50.253,112.031,112.031,112.031
		c61.774,0,112.026-50.252,112.026-112.031C398.094,645.622,347.841,595.365,286.067,595.365L286.067,595.365z M905.589,889.206
		l-65.877-68.597c26.535-31.366,41.388-71.088,41.388-113.213c0-97.047-78.995-176.047-176.047-176.047
		c-97.047,0-176.042,79-176.042,176.047c0,88.505,67.664,163.563,157.385,174.703c1.344,0.19,2.657,0.254,3.966,0.254
		c15.942,0,29.739-11.873,31.723-28.068c2.178-17.544-10.276-33.549-27.815-35.693c-56.753-7.042-101.242-55.883-101.242-111.195
		c0-61.774,50.253-112.031,112.026-112.031c61.779,0,112.031,50.257,112.031,112.031c0,34.697-15.653,66.896-42.984,88.279
		c-13.925,10.882-16.392,31.015-5.476,44.909c3.136,4,7.136,6.784,11.395,8.831c0.992,1.44,1.539,3.077,2.784,4.386l76.563,79.703
		c6.305,6.56,14.69,9.856,23.111,9.856c7.971,0,15.971-2.975,22.149-8.899C917.399,922.203,917.814,901.944,905.589,889.206
		L905.589,889.206z M905.589,889.206"/>
</g>
</svg>
