<?xml version="1.0" encoding="utf-8"?>
<!-- Generator: Adobe Illustrator 16.0.0, SVG Export Plug-In . SVG Version: 6.00 Build 0)  -->
<!DOCTYPE svg PUBLIC "-//W3C//DTD SVG 1.1//EN" "http://www.w3.org/Graphics/SVG/1.1/DTD/svg11.dtd">
<svg version="1.1" id="图形" xmlns="http://www.w3.org/2000/svg" xmlns:xlink="http://www.w3.org/1999/xlink" x="0px" y="0px"
	 width="1024px" height="1024px" viewBox="0 0 1024 1024" enable-background="new 0 0 1024 1024" xml:space="preserve">
<path fill-rule="evenodd" clip-rule="evenodd" fill="#231815" d="M512,953C268.452,953,71,755.548,71,512
	C71,268.453,268.452,71,512,71c243.548,0,441,197.453,441,441C953,755.548,755.548,953,512,953z M314.311,375.138
	c-25.187,0-45.621,20.434-45.621,45.62c0,25.187,20.434,45.621,45.621,45.621c25.186,0,45.62-20.434,45.62-45.621
	C359.931,395.572,339.497,375.138,314.311,375.138z M504.396,542.414c-87.394,0-165.315,39.992-216.891,102.527l11.064,19.128h32.79
	c43.066-46.646,104.548-76.034,173.037-76.034c68.491,0,129.973,29.389,173.039,76.034h27.979l13.127-22.439
	C666.95,580.995,590.247,542.414,504.396,542.414z M694.483,375.138c-25.186,0-45.62,20.434-45.62,45.62
	c0,25.187,20.435,45.621,45.62,45.621c25.187,0,45.62-20.434,45.62-45.621C740.103,395.572,719.669,375.138,694.483,375.138z"/>
</svg>
