<?xml version="1.0" encoding="utf-8"?>
<!-- Generator: Adobe Illustrator 16.0.0, SVG Export Plug-In . SVG Version: 6.00 Build 0)  -->
<!DOCTYPE svg PUBLIC "-//W3C//DTD SVG 1.1//EN" "http://www.w3.org/Graphics/SVG/1.1/DTD/svg11.dtd">
<svg version="1.1" id="图形" xmlns="http://www.w3.org/2000/svg" xmlns:xlink="http://www.w3.org/1999/xlink" x="0px" y="0px"
	 width="1024px" height="1024px" viewBox="0 0 1024 1024" enable-background="new 0 0 1024 1024" xml:space="preserve">
<g id="icon3">
	<g>
		<path fill-rule="evenodd" clip-rule="evenodd" d="M960.538,396.552c-8.157-21.205-28.6-36.585-52.875-39.559l-236.441-29.288
			L565.348,128.169c-11.081-20.958-34.435-34.054-59.829-33.637c-25.356,0.418-48.207,14.275-58.674,35.578l-99.228,202.951
			L112.27,370.114c-24.177,3.759-44.079,19.804-51.512,41.278c-7.433,21.573-1.167,45.111,16.229,60.935l175.556,160.371
			L216.19,859.63c-3.71,22.924,7.113,45.578,27.814,58.625c11.4,7.076,24.656,10.59,37.899,10.368
			c10.86-0.172,21.745-2.874,31.573-8.01l203.897-108.085l207.411,101.304c9.951,4.791,20.909,7.15,31.745,6.953
			c13.269-0.196,26.389-4.152,37.568-11.597c20.246-13.735,30.295-36.733,25.848-59.51l-43.784-225.63l170.175-166.047
			C963.191,441.589,968.695,417.878,960.538,396.552z M916.754,430.925L746.555,596.973c-9.287,9.066-13.342,21.794-10.958,34.201
			l43.809,225.655c1.548,7.862-2.015,15.773-9.042,20.516c-4.275,2.875-9.287,4.398-14.496,4.472
			c-4.227,0.074-8.452-0.835-12.089-2.579L536.343,777.884c-6.13-2.973-12.899-4.423-19.632-4.324
			c-6.708,0.123-13.391,1.794-19.447,4.963l-203.75,108.036c-3.723,1.966-7.973,3.022-12.261,3.096
			c-5.123,0.074-10.271-1.326-14.349-3.857c-7.42-4.668-11.253-12.481-9.963-20.394l36.352-226.956
			c1.99-12.457-2.506-25.037-12.101-33.809L105.587,444.243c-6.032-5.504-8.194-13.489-5.676-20.762
			c2.653-7.666,10.135-13.538,19.054-14.938l235.335-37.052c13.514-2.113,25.013-10.418,30.737-22.138l99.179-202.902
			c3.796-7.715,12.433-12.826,21.941-12.973c9.582-0.147,18.354,4.644,22.347,12.211l105.886,199.536
			c6.118,11.523,17.888,19.459,31.401,21.13l236.515,29.288c8.895,1.081,16.561,6.708,19.46,14.202
			C924.543,417.117,922.65,425.176,916.754,430.925z"/>
	</g>
</g>
</svg>
