<?xml version="1.0" encoding="utf-8"?>
<!-- Generator: Adobe Illustrator 16.0.0, SVG Export Plug-In . SVG Version: 6.00 Build 0)  -->
<!DOCTYPE svg PUBLIC "-//W3C//DTD SVG 1.1//EN" "http://www.w3.org/Graphics/SVG/1.1/DTD/svg11.dtd">
<svg version="1.1" id="图形" xmlns="http://www.w3.org/2000/svg" xmlns:xlink="http://www.w3.org/1999/xlink" x="0px" y="0px"
	 width="1024px" height="1024px" viewBox="0 0 1024 1024" enable-background="new 0 0 1024 1024" xml:space="preserve">
<g id="Rounded_Rectangle_87_copy_4">
	<g>
		<path fill-rule="evenodd" clip-rule="evenodd" d="M899.432,403.691c0-33.863-27.456-61.319-61.319-61.319h-47.696
			c19.926-19.477,32.366-46.588,32.366-76.649c0-59.268-48.04-107.309-107.309-107.309c-60.301,0-99.629,59.867-123.342,116.366
			c-12.725-5.629-28.279-9.057-45.286-9.057c-17.006,0-32.561,3.428-45.286,9.057c-23.713-56.499-63.041-116.366-123.342-116.366
			c-50.234,0-92.069,34.657-103.761,81.26c9.768,2.021,19.664,4.67,29.679,7.889c8.092-33.639,38.242-58.789,74.336-58.789
			c44.148,0,77.008,52.696,97.937,104.824c-3.324,4.656-5.09,9.761-5.689,15.06c1.647-0.239,3.234-0.539,4.566-0.958
			c-1.977,0.614-3.309,1.482-4.791,2.291c-0.045,0.584-0.299,1.138-0.299,1.722c0,9.896,5.584,18.863,14.492,26.348
			c-0.135,0.045-0.21,0.104-0.344,0.134c-19.926,6.288-58.55,5.45-129.368-33.743c-157.482-87.158-226.96-3.398-227.709-2.47
			c-5.344,6.557-4.334,16.228,2.238,21.558c6.58,5.314,16.235,4.341,21.565-2.246c0.584-0.719,53.759-64.897,189.063,9.985
			c48.685,26.947,90.018,40.465,123.402,40.465c6.736,0,13.039-0.749,19.132-1.856c0.509,1.033,1.183,2.141,1.632,3.144h47.216
			V495.67H224.92v-91.979c0-16.932,13.728-30.659,30.66-30.659h101.785c-10.382-4.821-20.989-10.12-31.947-16.184
			c-10.247-5.674-20.165-10.375-29.881-14.476H255.58c-33.863,0-61.319,27.456-61.319,61.319V526.33l45.99,0.015v275.922
			c0,33.863,27.456,61.319,61.319,61.319h490.554c33.863,0,61.319-27.456,61.319-61.319V526.465h46.139L899.432,403.691z
			 M531.516,832.926H301.569c-16.932,0-30.66-13.728-30.66-30.659V526.33h260.606V832.926z M623.495,311.713
			c0-6.438-2.23-12.561-6.213-18.114c20.929-52.127,53.804-104.824,97.938-104.824c42.262,0,76.648,34.372,76.648,76.649
			c0,42.247-34.387,76.634-76.648,76.634H604.033C615.995,333.959,623.495,323.405,623.495,311.713z M529.33,325.875
			c-1.452-2.635-3.458-4.985-6.362-6.422c-4.79-2.38-10.09-1.767-14.387,0.749c-4.865-2.425-7.725-5.345-7.725-8.488
			c0-8.474,20.6-15.33,45.989-15.33c25.405,0,45.989,6.856,45.989,15.33c0,8.473-20.584,15.33-45.989,15.33
			C540.633,327.042,534.734,326.624,529.33,325.875z M822.782,802.267c0,16.932-13.728,30.659-30.659,30.659H562.176V526.33h260.606
			V802.267z M868.771,495.67H562.176V373.032h275.937c16.932,0,30.659,13.728,30.659,30.659V495.67z"/>
	</g>
</g>
</svg>
