<?xml version="1.0" encoding="utf-8"?>
<!-- Generator: Adobe Illustrator 16.0.0, SVG Export Plug-In . SVG Version: 6.00 Build 0)  -->
<!DOCTYPE svg PUBLIC "-//W3C//DTD SVG 1.1//EN" "http://www.w3.org/Graphics/SVG/1.1/DTD/svg11.dtd">
<svg version="1.1" id="图形" xmlns="http://www.w3.org/2000/svg" xmlns:xlink="http://www.w3.org/1999/xlink" x="0px" y="0px"
	 width="1024px" height="1024px" viewBox="0 0 1024 1024" enable-background="new 0 0 1024 1024" xml:space="preserve">
<g id="矩形_34_拷贝_2">
	<g>
		<path fill-rule="evenodd" clip-rule="evenodd" d="M512.001,81.286C274.123,81.286,81.287,274.122,81.287,512
			s192.836,430.714,430.714,430.714S942.715,749.878,942.715,512S749.879,81.286,512.001,81.286z M512.001,906.821
			C293.945,906.821,117.18,730.056,117.18,512c0-218.056,176.765-394.821,394.821-394.821
			c218.056,0,394.821,176.765,394.821,394.821C906.822,730.056,730.057,906.821,512.001,906.821z M601.733,296.643H565.84v125.625
			H296.644v35.893h261.765L293.191,723.379l25.377,25.377L565.84,501.484V709.41H422.269v35.894h179.465V465.592l7.431-7.431
			h118.193v-35.893H601.733V296.643z"/>
	</g>
</g>
</svg>
