<?xml version="1.0" encoding="utf-8"?>
<!-- Generator: Adobe Illustrator 16.0.0, SVG Export Plug-In . SVG Version: 6.00 Build 0)  -->
<!DOCTYPE svg PUBLIC "-//W3C//DTD SVG 1.1//EN" "http://www.w3.org/Graphics/SVG/1.1/DTD/svg11.dtd">
<svg version="1.1" id="图形" xmlns="http://www.w3.org/2000/svg" xmlns:xlink="http://www.w3.org/1999/xlink" x="0px" y="0px"
	 width="1024px" height="1024px" viewBox="0 0 1024 1024" enable-background="new 0 0 1024 1024" xml:space="preserve">
<path fill-rule="evenodd" clip-rule="evenodd" fill="#231815" d="M1006.601,533.479c-4.857,12.767-17.112,21.228-30.791,21.228
	h-82.067v225.842c0,56.831-28.796,108.872-76.978,139.174c-15.393,9.648-35.71,5.068-45.379-10.305
	c-9.689-15.376-5.067-35.649,10.305-45.317c28.967-18.215,46.229-49.453,46.229-83.552V521.838
	c0-18.151,14.717-32.868,32.911-32.868h28.12L511.997,155.848L135.044,488.97h28.117c18.196,0,32.913,14.717,32.913,32.868v258.711
	c0,54.371,44.299,98.628,98.734,98.628H588.91c18.151,0,32.91-14.759,32.91-32.89V655.54c0-18.129-14.759-32.868-32.91-32.868
	H435.105c-18.152,0-32.91,14.739-32.91,32.868v122.718c0,18.153-14.761,32.87-32.913,32.87c-18.195,0-32.912-14.717-32.912-32.87
	V655.54c0-54.371,44.279-98.628,98.734-98.628H588.91c54.435,0,98.712,44.257,98.712,98.628v190.747
	c0,53.99-43.662,97.864-97.546,98.5c-0.212,0.021-0.38,0.128-0.593,0.128H294.808c-90.719,0-164.537-73.731-164.537-164.366V554.707
	H48.185c-13.678,0-25.934-8.461-30.78-21.228c-4.846-12.785-1.273-27.207,8.971-36.263L490.198,87.331
	c12.448-11.006,31.172-10.983,43.62,0L997.61,497.217C1007.875,506.272,1011.436,520.694,1006.601,533.479z"/>
</svg>
