<?xml version="1.0" encoding="utf-8"?>
<!-- Generator: Adobe Illustrator 16.0.0, SVG Export Plug-In . SVG Version: 6.00 Build 0)  -->
<!DOCTYPE svg PUBLIC "-//W3C//DTD SVG 1.1//EN" "http://www.w3.org/Graphics/SVG/1.1/DTD/svg11.dtd">
<svg version="1.1" id="图形" xmlns="http://www.w3.org/2000/svg" xmlns:xlink="http://www.w3.org/1999/xlink" x="0px" y="0px"
	 width="1024px" height="1024px" viewBox="0 0 1024 1024" enable-background="new 0 0 1024 1024" xml:space="preserve">
<g id="icon4">
	<g>
		<path fill-rule="evenodd" clip-rule="evenodd" d="M511.47,258.459c-73.224,0-132.584,56.531-132.584,126.26
			c0,69.75,59.36,126.28,132.584,126.28c73.234,0,132.573-56.53,132.573-126.28C644.043,314.99,584.704,258.459,511.47,258.459z
			 M510.541,475.671c-52.74,0-95.492-40.714-95.492-90.952c0-50.217,42.752-90.931,95.492-90.931
			c52.75,0,95.492,40.714,95.492,90.931C606.032,434.957,563.291,475.671,510.541,475.671z M725.091,162.968
			C667.905,108.507,591.884,78.52,511.005,78.52c-80.868,0-156.89,29.987-214.075,84.448
			c-57.175,54.461-88.671,126.872-88.671,203.886c0,59.529,15.363,126.745,45.666,199.768
			c23.957,57.756,57.301,119.396,99.092,183.171c70.954,108.268,140.798,184.353,143.734,187.541
			c3.601,3.907,8.795,6.146,14.254,6.146h0.084c5.491-0.021,10.707-2.323,14.286-6.272c2.936-3.252,72.717-80.688,143.629-189.653
			c41.79-64.175,75.113-125.879,99.081-183.36c30.304-72.748,45.655-139.141,45.655-197.339
			C813.74,289.84,782.255,217.429,725.091,162.968z M732.904,550.595c-23.061,55.433-55.327,115.151-95.83,177.469
			c-50.766,78.027-102.049,140.788-126.196,169.148c-24.19-27.98-75.357-89.706-125.975-167.037
			c-40.503-61.853-72.738-121.445-95.798-177.109c-28.466-68.673-42.889-131.328-42.889-186.211
			c0-67.364,27.537-130.694,77.542-178.334c50.016-47.619,116.503-73.847,187.246-73.847c70.742,0,137.22,26.228,187.246,73.847
			c50.005,47.64,77.542,110.971,77.542,178.334C775.793,420.407,761.37,482.217,732.904,550.595z"/>
	</g>
</g>
</svg>
