<?xml version="1.0" encoding="utf-8"?>
<!-- Generator: Adobe Illustrator 16.0.0, SVG Export Plug-In . SVG Version: 6.00 Build 0)  -->
<!DOCTYPE svg PUBLIC "-//W3C//DTD SVG 1.1//EN" "http://www.w3.org/Graphics/SVG/1.1/DTD/svg11.dtd">
<svg version="1.1" id="图形" xmlns="http://www.w3.org/2000/svg" xmlns:xlink="http://www.w3.org/1999/xlink" x="0px" y="0px"
	 width="1024px" height="1024px" viewBox="0 0 1024 1024" enable-background="new 0 0 1024 1024" xml:space="preserve">
<g id="椭圆_4">
	<g>
		<path fill-rule="evenodd" clip-rule="evenodd" d="M511,775.271c-22.096,0-40.022,18.197-40.022,40.647
			c0,22.471,17.926,40.668,40.022,40.668s40.022-18.197,40.022-40.668C551.022,793.469,533.096,775.271,511,775.271z
			 M661.083,185.737H360.917c-27.64,0-50.027,19.719-50.027,44.045v440.452c0,24.325,22.387,44.045,50.027,44.045h300.166
			c27.619,0,50.027-19.72,50.027-44.045V229.783C711.11,205.457,688.702,185.737,661.083,185.737z M681.761,681.762H340.239V212.169
			h341.522V681.762z M751.133,84.098H270.867c-44.212,0-80.044,31.851-80.044,71.143v711.518c0,39.293,35.832,71.144,80.044,71.144
			h480.266c44.212,0,80.044-31.851,80.044-71.144V155.241C831.177,115.949,795.345,84.098,751.133,84.098z M788.486,852.522
			c0,23.575-19.114,42.69-42.69,42.69H276.204c-23.576,0-42.69-19.115-42.69-42.69V169.479c0-23.576,19.115-42.69,42.69-42.69
			h469.592c23.576,0,42.69,19.115,42.69,42.69V852.522z"/>
	</g>
</g>
</svg>
