<?xml version="1.0" encoding="utf-8"?>
<!-- Generator: Adobe Illustrator 16.0.0, SVG Export Plug-In . SVG Version: 6.00 Build 0)  -->
<!DOCTYPE svg PUBLIC "-//W3C//DTD SVG 1.1//EN" "http://www.w3.org/Graphics/SVG/1.1/DTD/svg11.dtd">
<svg version="1.1" id="图形" xmlns="http://www.w3.org/2000/svg" xmlns:xlink="http://www.w3.org/1999/xlink" x="0px" y="0px"
	 width="1024px" height="1024px" viewBox="0 0 1024 1024" enable-background="new 0 0 1024 1024" xml:space="preserve">
<path fill="#231815" d="M879.877,892.007c-18.682,0-33.845-14.844-33.845-33.166c0-58.91-121.19-217.953-187.925-246.645
	c-10.604-4.538-18.089-14.102-19.85-25.298c-1.781-11.196,2.441-22.521,11.156-29.987c45.444-39.018,71.505-95.084,71.505-153.887
	c0-112.88-93.729-204.721-208.92-204.721c-115.21,0-208.918,91.841-208.918,204.721c0,58.803,26.04,114.915,71.484,153.887
	c8.715,7.466,12.913,18.771,11.155,29.987c-1.763,11.196-9.248,20.76-19.85,25.298c-66.734,28.691-187.904,187.734-187.904,246.645
	c0,18.322-15.163,33.166-33.845,33.166c-18.704,0-33.844-14.844-33.844-33.166c0-79.16,104.12-221.114,188.519-283.5
	c-40.694-48.243-63.405-109.083-63.405-172.317c0-149.438,124.098-271.031,276.607-271.031
	c152.512,0,276.609,121.593,276.609,271.031c0,63.234-22.732,124.074-63.405,172.317c84.397,62.386,188.519,204.34,188.519,283.5
	C913.722,877.163,898.582,892.007,879.877,892.007z"/>
</svg>
