<?xml version="1.0" encoding="utf-8"?>
<!-- Generator: Adobe Illustrator 16.0.0, SVG Export Plug-In . SVG Version: 6.00 Build 0)  -->
<!DOCTYPE svg PUBLIC "-//W3C//DTD SVG 1.1//EN" "http://www.w3.org/Graphics/SVG/1.1/DTD/svg11.dtd">
<svg version="1.1" id="图形" xmlns="http://www.w3.org/2000/svg" xmlns:xlink="http://www.w3.org/1999/xlink" x="0px" y="0px"
	 width="1024px" height="1024px" viewBox="0 0 1024 1024" enable-background="new 0 0 1024 1024" xml:space="preserve">
<g id="icon3_1_">
	<g>
		<path fill-rule="evenodd" clip-rule="evenodd" d="M875.344,355.599c-2.011-2.031-193.85-193.785-212.553-212.108h0.021
			c-0.635-0.656-1.27-1.249-1.968-1.82c-34.805-28.331-84.971-25.77-116.665,5.988c-26.807,26.786-25.326,62.648-24.353,85.965
			c0.147,6.03,0.274,12.166,0.274,17.941c0,24.818-23.379,60.808-59.58,91.656c-37.788,32.224-81.31,52.006-105.917,48.007
			c-5.776-0.931-11.129-1.417-15.889-1.819c-2.243-0.19-4.316-0.381-6.263-0.614C216.168,360,163.866,436.338,157.783,445.943
			c-8.876,15.382-6.421,34.805,5.977,47.204l127.117,127.202L128.691,839.946c-11.552,15.467-9.912,36.709,3.872,50.546
			c7.617,7.617,17.508,11.489,27.42,11.489c7.987,0,15.953-2.518,22.766-7.596l181.778-132.64c8.696-6.326,10.6-18.513,4.274-27.188
			c-6.326-8.696-18.492-10.643-27.209-4.273L159.962,863.22l172.215-233.202c5.734-7.766,4.93-18.534-1.904-25.368L191.181,466.001
			c4.03-6.368,41.967-61.569,131.602-39.459c1.777,0.593,3.597,0.931,5.48,0.995c2.2,0.275,4.549,0.486,7.088,0.698
			c3.914,0.338,8.294,0.719,13.076,1.481c43.775,7.024,99.717-24.712,137.399-56.809c45.87-39.121,73.27-84.483,73.27-121.319
			c0-6.03-0.147-12.462-0.296-19.169c-0.994-24.057-0.677-43.543,12.948-57.19c17.562-17.604,45.3-19,63.771-3.978
			c6.03,5.797,210.31,209.908,212.319,211.918c9.141,9.183,14.197,21.37,14.219,34.318c0,12.927-4.994,25.03-14.112,34.17
			c-13.499,13.52-33.007,13.816-57.677,12.779c-6.284-0.148-12.759-0.275-18.768-0.275c-44.22,0-82.896,32.012-107.608,58.861
			c-43.459,47.288-73.82,111.968-70.541,150.898c1.016,9.458,2.941,25.622,3.322,27.399c21.919,89.223-33.07,126.969-39.058,130.841
			L421.823,696.284c-7.617-7.617-19.909-7.617-27.526,0c-7.617,7.616-7.617,19.931,0,27.548l135.792,135.876
			c12.673,12.673,32.202,15.021,47.943,5.521c8.78-5.543,84.886-57.507,56.81-171.463c-0.297-1.947-1.884-15.742-2.751-23.57
			c-2.031-24.353,21.771-78.708,60.448-120.812c27.421-29.833,55.476-46.272,78.961-46.272c5.734,0,11.891,0.127,17.52,0.254
			c23.76,1.016,59.792,2.539,86.451-24.163c16.461-16.482,25.537-38.401,25.516-61.781
			C900.944,394.085,891.847,372.124,875.344,355.599z"/>
	</g>
</g>
</svg>
