<?xml version="1.0" encoding="utf-8"?>
<!-- Generator: Adobe Illustrator 16.0.0, SVG Export Plug-In . SVG Version: 6.00 Build 0)  -->
<!DOCTYPE svg PUBLIC "-//W3C//DTD SVG 1.1//EN" "http://www.w3.org/Graphics/SVG/1.1/DTD/svg11.dtd">
<svg version="1.1" id="图形" xmlns="http://www.w3.org/2000/svg" xmlns:xlink="http://www.w3.org/1999/xlink" x="0px" y="0px"
	 width="1024px" height="1024px" viewBox="0 0 1024 1024" enable-background="new 0 0 1024 1024" xml:space="preserve">
<g id="icon2">
	<g>
		<path fill-rule="evenodd" clip-rule="evenodd" d="M924.429,760.324c-1.287-14.415-7.872-26.802-18.101-33.955
			c-12.801-8.963-152.064-101.58-169.009-111.938c-14.066-8.592-34.26-8.33-55.37,0.741c-2.529,1.091-5.059,2.29-7.523,3.599
			c-5.226,2.761-49.116,24.206-76.144,42.733c-16.489-11.436-58.934-43.345-126.231-110.643
			c-67.364-67.363-99.236-109.823-110.619-126.266c10.773-18.864,35.448-62.217,42.721-76.087
			c12.594-23.879,14.164-47.497,4.209-63.155c-10.075-15.919-102.245-155.663-111.895-169.009
			c-7.175-9.922-19.463-16.377-33.704-17.708c-18.973-1.766-34.413,5.845-44.052,12.562c-11.994,8.374-40.965,31.229-67.658,56.853
			c-48.009,46.101-53.069,67.298-52.687,79.227l0.011,0.479c0.523,16.53,1.908,60.473,35.285,131.173
			c40.857,86.489,115.123,183.904,220.759,289.562c105.636,105.636,203.051,179.935,289.496,220.78
			c70.7,33.388,114.665,34.783,131.217,35.307l0.501,0.021c0.393,0.022,0.764,0.022,1.135,0.022
			c12.125,0,33.409-6.194,78.071-52.731c25.624-26.692,48.456-55.653,56.809-67.625C923.884,786.82,925.345,770.727,924.429,760.324
			z M884.543,785.315c-6.543,9.355-28.176,37.16-53.298,63.395c-20.325,21.197-33.933,31.905-42.46,37.313
			c-8.549,5.408-12.016,5.517-12.104,5.517h-0.501c-14.677-0.479-53.647-1.723-118.132-32.166
			c-83-39.231-177.296-111.306-280.239-214.26C274.877,542.16,202.792,447.842,163.571,364.799
			c-30.443-64.485-31.675-103.434-32.133-118.088l-0.011-0.479c-0.011-0.131,0.359-13.892,42.819-54.606
			c26.202-25.123,54.04-46.777,63.395-53.32c15.833-11.034,29.331-6.324,32.024-2.595c9.018,12.496,101.198,152.239,110.761,167.352
			c2.181,3.424,2.606,14.589-5.54,30.051c-8.941,17.032-46.821,83.196-47.203,83.872c-2.944,5.147-2.911,11.471,0.087,16.574
			c1.145,1.962,29.124,48.936,120.891,140.702c70.317,70.309,114.332,103.192,131.936,115.232c3.232,4.082,7.462,6.363,12.382,7.243
			c2.764,0.829,5.638,0.902,8.359,0.287c32.349-2.854,82.349-45.762,88.526-49.009c1.723-0.895,3.424-1.723,5.146-2.464
			c12.016-5.169,21.437-5.125,25.057-2.9c16.661,10.162,156.579,103.303,167.286,110.804
			C891.085,756.071,895.708,769.374,884.543,785.315z"/>
	</g>
</g>
</svg>
