<?xml version="1.0" encoding="utf-8"?>
<!-- Generator: Adobe Illustrator 16.0.0, SVG Export Plug-In . SVG Version: 6.00 Build 0)  -->
<!DOCTYPE svg PUBLIC "-//W3C//DTD SVG 1.1//EN" "http://www.w3.org/Graphics/SVG/1.1/DTD/svg11.dtd">
<svg version="1.1" id="图形" xmlns="http://www.w3.org/2000/svg" xmlns:xlink="http://www.w3.org/1999/xlink" x="0px" y="0px"
	 width="1024px" height="1024px" viewBox="0 0 1024 1024" enable-background="new 0 0 1024 1024" xml:space="preserve">
<g id="icon1_1_">
	<g>
		<path fill-rule="evenodd" clip-rule="evenodd" d="M511,123.519c-214.004,0-387.481,173.477-387.481,387.481
			c0,214.004,173.478,387.481,387.481,387.481S898.481,725.004,898.481,511C898.481,296.996,725.004,123.519,511,123.519z
			 M511,859.733c-93.729,0-178.643-37.178-241.306-97.344l15.117-0.7c-0.227-4.56-0.473-9.063-0.473-13.584
			c0-116.661,92.216-212.585,208.934-221.478c4.333,0.416,8.722,0.644,13.168,0.644c5.581,0,11.105-0.36,16.517-1.022
			c119.442,6.131,214.724,103.284,214.724,221.856c0,4.295-0.228,8.59-0.511,13.604l15.552,0.303
			C690.021,822.404,604.938,859.733,511,859.733z M398.615,393.204c0-59.144,48.359-107.258,107.825-107.258
			c59.484,0,107.844,48.114,107.844,107.258c0,59.144-48.359,107.257-107.844,107.257
			C446.975,500.461,398.615,452.348,398.615,393.204z M762.73,751.946c0.019-1.287,0.133-2.555,0.133-3.841
			c0-114.675-80.921-211.261-189.957-238.26c40.791-23.044,68.32-66.655,68.32-116.642c0-74.034-60.355-134.067-134.786-134.067
			c-74.432,0-134.786,60.033-134.786,134.067c0,51.178,28.853,95.678,71.252,118.25c-105.914,29.061-183.77,124.152-183.77,236.651
			c0,1.286,0.113,2.554,0.132,3.841C199.312,689.302,162.267,604.56,162.267,511c0-192.605,156.128-348.733,348.733-348.733
			S859.733,318.395,859.733,511C859.733,604.56,822.688,689.302,762.73,751.946z"/>
	</g>
</g>
</svg>
