<?xml version="1.0" encoding="utf-8"?>
<!-- Generator: Adobe Illustrator 16.0.0, SVG Export Plug-In . SVG Version: 6.00 Build 0)  -->
<!DOCTYPE svg PUBLIC "-//W3C//DTD SVG 1.1//EN" "http://www.w3.org/Graphics/SVG/1.1/DTD/svg11.dtd">
<svg version="1.1" id="图层_1" xmlns="http://www.w3.org/2000/svg" xmlns:xlink="http://www.w3.org/1999/xlink" x="0px" y="0px"
	 width="595.28px" height="841.89px" viewBox="0 0 595.28 841.89" enable-background="new 0 0 595.28 841.89" xml:space="preserve">
<g>
	<path fill-rule="evenodd" clip-rule="evenodd" fill="none" d="M313.5,412v-2.111c0-2.686-2.149-4.862-4.8-4.862h-2.2V403h3.6
		c2.982,0,5.4,2.449,5.4,5.471V408l0,0v0.471V412H313.5z M279.5,433.6L279.5,433.6L279.5,433.6V430h2v2.2c0,2.651,2.149,4.8,4.8,4.8
		h2.2v2h-3.6C281.918,439,279.5,436.582,279.5,433.6z M281.5,409.8v2.2h-2l0,0v-3.6c0-2.982,2.418-5.4,5.4-5.4h3.6v2h-2.2
		C283.649,405,281.5,407.149,281.5,409.8z M313.5,432.111V430h2v3.529V434l0,0v-0.471c0,3.021-2.418,5.471-5.4,5.471h-3.6v-2.026
		h2.2C311.351,436.974,313.5,434.797,313.5,432.111z"/>
</g>
<g>
	<path fill-rule="evenodd" clip-rule="evenodd" fill="#142F82" d="M537.875,285.789v-31.72c0-40.346-32.291-73.048-72.109-73.048
		h-33.055v-30.443h54.079c44.806,0,81.132,36.796,81.132,82.189v-7.071l0,0v7.071v53.022H537.875z M27.078,610.29L27.078,610.29
		L27.078,610.29v-54.079h30.047v33.055c0,39.833,32.292,72.109,72.11,72.109h33.054v30.048H108.21
		C63.404,691.423,27.078,655.096,27.078,610.29z M57.125,252.734v33.055H27.078l0,0v-54.086c0-44.807,36.326-81.125,81.132-81.125
		h54.079v30.047h-33.054C89.416,180.625,57.125,212.909,57.125,252.734z M537.875,587.931v-31.72h30.047v53.022v7.071l0,0v-7.071
		c0,45.394-36.326,82.189-81.132,82.189h-54.079v-30.443h33.055C505.584,660.979,537.875,628.277,537.875,587.931z"/>
</g>
</svg>
