<?xml version="1.0" encoding="utf-8"?>
<!-- Generator: Adobe Illustrator 16.0.0, SVG Export Plug-In . SVG Version: 6.00 Build 0)  -->
<!DOCTYPE svg PUBLIC "-//W3C//DTD SVG 1.1//EN" "http://www.w3.org/Graphics/SVG/1.1/DTD/svg11.dtd">
<svg version="1.1" id="图形" xmlns="http://www.w3.org/2000/svg" xmlns:xlink="http://www.w3.org/1999/xlink" x="0px" y="0px"
	 width="1024px" height="1024px" viewBox="0 0 1024 1024" enable-background="new 0 0 1024 1024" xml:space="preserve">
<g>
	<path fill="#272636" d="M952.726,907.687L800.078,744.349c61.872-74.517,95.899-167.407,95.899-265.191
		c0-229.401-186.675-416.076-416.144-416.076c-229.4,0-416.075,186.641-416.075,416.076s186.675,416.075,416.109,416.075
		c60.109-0.028,118.078-12.575,172.267-37.256c16.103-7.331,23.209-26.311,15.878-42.378c-7.331-16.134-26.408-23.27-42.38-15.875
		c-45.866,20.865-94.907,31.464-145.799,31.493c-194.127,0-352.06-157.927-352.06-352.059c0-194.099,157.932-352.06,352.06-352.06
		c194.162,0,352.124,157.932,352.124,352.06c0,91.386-34.854,177.966-98.103,243.808c-12.259,12.737-11.844,33.002,0.865,45.261
		c0.957,0.928,2.207,1.279,3.296,2.08c0.865,1.28,1.31,2.75,2.398,3.903L905.96,951.346c6.276,6.755,14.823,10.145,23.366,10.145
		c7.844,0,15.688-2.848,21.865-8.641C964.091,940.846,964.794,920.586,952.726,907.687L952.726,907.687z M952.726,907.687"/>
</g>
</svg>
