<?xml version="1.0" encoding="utf-8"?>
<!-- Generator: Adobe Illustrator 16.0.0, SVG Export Plug-In . SVG Version: 6.00 Build 0)  -->
<!DOCTYPE svg PUBLIC "-//W3C//DTD SVG 1.1//EN" "http://www.w3.org/Graphics/SVG/1.1/DTD/svg11.dtd">
<svg version="1.1" id="图形" xmlns="http://www.w3.org/2000/svg" xmlns:xlink="http://www.w3.org/1999/xlink" x="0px" y="0px"
	 width="1024px" height="1024px" viewBox="0 0 1024 1024" enable-background="new 0 0 1024 1024" xml:space="preserve">
<g id="shopping-bag">
	<g>
		<path fill-rule="evenodd" clip-rule="evenodd" d="M887.807,909.801L853.684,363.25c-0.999-9.289-8.71-16.334-17.876-16.334
			H692.394v-73.258c0-101.281-80.461-183.39-179.718-183.39c-99.266,0-179.727,82.108-179.727,183.39v73.258H190.446
			c-9.14,0-16.833,7.01-17.85,16.264l-37.12,550.144c-0.578,5.188,1.034,10.393,4.443,14.283c3.4,3.891,8.281,6.116,13.407,6.116
			h716.989c0.141,0.018,0.263,0,0.351,0c9.938,0,17.981-8.201,17.981-18.331C888.647,913.445,888.35,911.553,887.807,909.801z
			 M368.894,273.658c0-81.021,64.372-146.708,143.782-146.708c79.4,0,143.772,65.687,143.772,146.708v73.258H368.894V273.658z
			 M173.455,897.06l33.036-513.462h126.458v41.687c-10.742,6.343-17.973,18.187-17.973,31.764c0,20.26,16.088,36.682,35.945,36.682
			c19.848,0,35.945-16.422,35.945-36.682c0-13.575-7.233-25.418-17.973-31.761v-41.689h287.554v41.692
			c-10.737,6.344-17.964,18.186-17.964,31.758c0,20.26,16.089,36.682,35.945,36.682c19.84,0,35.945-16.422,35.945-36.682
			c0-13.577-7.238-25.422-17.981-31.764v-41.687h127.308l30.583,513.462H173.455z"/>
	</g>
</g>
</svg>
